<?xml version="1.0" encoding="UTF-8" standalone="no"?>
<!-- Created with Inkscape (http://www.inkscape.org/) -->

<svg
   width="150"
   height="150"
   viewBox="0 0 39.687498 39.687501"
   version="1.1"
   id="svg1"
   inkscape:export-filename="nfc.svg"
   inkscape:export-xdpi="96"
   inkscape:export-ydpi="96"
   xmlns:inkscape="http://www.inkscape.org/namespaces/inkscape"
   xmlns:sodipodi="http://sodipodi.sourceforge.net/DTD/sodipodi-0.dtd"
   xmlns="http://www.w3.org/2000/svg"
   xmlns:svg="http://www.w3.org/2000/svg">
  <sodipodi:namedview
     id="namedview1"
     pagecolor="#ffffff"
     bordercolor="#000000"
     borderopacity="0.25"
     inkscape:showpageshadow="2"
     inkscape:pageopacity="0.0"
     inkscape:pagecheckerboard="0"
     inkscape:deskcolor="#d1d1d1"
     inkscape:document-units="mm"
     inkscape:zoom="4.5858771"
     inkscape:cx="81.554736"
     inkscape:cy="81.118615"
     inkscape:window-width="1920"
     inkscape:window-height="1130"
     inkscape:window-x="-6"
     inkscape:window-y="-6"
     inkscape:window-maximized="1"
     inkscape:current-layer="layer1" />
  <defs
     id="defs1" />
  <g
     inkscape:label="Layer 1"
     inkscape:groupmode="layer"
     id="layer1">
    <path
       d="m 24.174771,4.2981095 c 0.71619,-0.7144752 1.875486,-0.7144752 2.591675,0 8.583813,8.5855705 8.583813,22.5061815 0,31.0899945 -0.716189,0.71619 -1.875485,0.71619 -2.591675,0 -0.71619,-0.714475 -0.71619,-1.875486 0,-2.589961 7.154863,-7.154864 7.154863,-18.7531 0,-25.9084019 -0.71619,-0.7161901 -0.71619,-1.8754864 0,-2.5916765 z M 18.457212,7.963212 c 0.714475,-0.7161901 1.875486,-0.7161901 2.589961,0 6.439069,6.439069 6.439069,16.877877 0,23.316506 -0.714475,0.71619 -1.875486,0.71619 -2.589961,0 -0.716189,-0.714475 -0.716189,-1.875485 0,-2.58996 5.00836,-5.00836 5.00836,-13.128314 0,-18.136674 -0.716189,-0.7144736 -0.716189,-1.8754849 0,-2.5899601 z M 12.737894,11.6266 c 0.71619,-0.714476 1.875487,-0.714476 2.591677,0 4.291994,4.291994 4.291994,11.253091 0,15.544778 -0.71619,0.71619 -1.875487,0.71619 -2.591677,0 -0.714473,-0.714475 -0.714473,-1.875487 0,-2.589962 2.861331,-2.863044 2.861331,-7.501768 0,-10.363185 -0.714473,-0.71619 -0.714473,-1.875486 0,-2.591675 z m -5.7175575,3.663387 c 0.7144751,-0.714475 1.8754864,-0.714475 2.5899599,0 2.1468556,2.146855 2.1468556,5.626546 0,7.773489 -0.7144735,0.716189 -1.8754848,0.716189 -2.5899599,0 -0.7161901,-0.71619 -0.7161901,-1.875486 0,-2.591676 0.7144751,-0.714475 0.7144751,-1.875485 0,-2.58996 -0.7161901,-0.71619 -0.7161901,-1.875487 0,-2.591677 z"
       fill-rule="evenodd"
       id="path1"
       style="opacity:0.0828516;stroke-width:0.439676" />
  </g>
</svg>
