<?xml version="1.0" encoding="UTF-8" standalone="no"?>
<!-- Created with Inkscape (http://www.inkscape.org/) -->

<svg
   width="500"
   height="500"
   viewBox="0 0 132.29166 132.29167"
   version="1.1"
   id="svg1"
   inkscape:export-filename="icon_192.svg"
   inkscape:export-xdpi="36.863998"
   inkscape:export-ydpi="36.863998"
   xmlns:inkscape="http://www.inkscape.org/namespaces/inkscape"
   xmlns:sodipodi="http://sodipodi.sourceforge.net/DTD/sodipodi-0.dtd"
   xmlns="http://www.w3.org/2000/svg"
   xmlns:svg="http://www.w3.org/2000/svg">
  <sodipodi:namedview
     id="namedview1"
     pagecolor="#ffffff"
     bordercolor="#000000"
     borderopacity="0.25"
     inkscape:showpageshadow="2"
     inkscape:pageopacity="0.0"
     inkscape:pagecheckerboard="0"
     inkscape:deskcolor="#d1d1d1"
     inkscape:document-units="mm"
     inkscape:export-bgcolor="#ffffffff" />
  <defs
     id="defs1" />
  <g
     inkscape:label="Layer 1"
     inkscape:groupmode="layer"
     id="layer1">
    <path
       d="m 26.285193,9.5105058 v 0 q -0.166086,0 -0.166086,0 0,0 0,0.166086 V 22.96347 q 0,0.166086 0,0.166086 0,0 0.166086,0 h 13.28688 q 0.166086,0 0.166086,0 0,0 0,-0.166086 V 9.6765918 q 0,-0.166086 0,-0.166086 0,0 -0.166086,0 z m 16.6086,0 v 0 q -0.166086,0 -0.166086,0 0,0 0,0.166086 V 22.96347 q 0,0.166086 0,0.166086 0,0 0.166086,0 h 13.28688 q 0.166086,0 0.166086,0 0,0 0,-0.166086 V 9.6765918 q 0,-0.166086 0,-0.166086 0,0 -0.166086,0 z m 16.6086,0 v 0 q -0.166086,0 -0.166086,0 0,0 0,0.166086 V 22.96347 q 0,0.166086 0,0.166086 0,0 0.166086,0 h 13.286879 q 0.166086,0 0.166086,0 0,0 0,-0.166086 V 9.6765918 q 0,-0.166086 0,-0.166086 0,0 -0.166086,0 z m 16.608599,0 v 0 q -0.166086,0 -0.166086,0 0,0 0,0.166086 V 22.96347 q 0,0.166086 0,0.166086 0,0 0.166086,0 h 13.28688 q 0.166086,0 0.166086,0 0,0 0,-0.166086 V 9.6765918 q 0,-0.166086 0,-0.166086 0,0 -0.166086,0 z M 26.285193,26.119104 v 0 q -0.166086,0 -0.166086,0 0,0 0,0.166086 v 13.28688 q 0,0.166086 0,0.166086 0,0 0.166086,0 h 13.28688 q 0.166086,0 0.166086,0 0,0 0,-0.166086 V 26.28519 q 0,-0.166086 0,-0.166086 0,0 -0.166086,0 z m 66.434399,0 v 0 q -0.166086,0 -0.166086,0 0,0 0,0.166086 v 13.28688 q 0,0.166086 0,0.166086 0,0 0.166086,0 h 13.286878 q 0.16609,0 0.16609,0 0,0 0,-0.166086 V 26.28519 q 0,-0.166086 0,-0.166086 0,0 -0.16609,0 z m -66.434399,16.6086 v 0 q -0.166086,0 -0.166086,0 0,0 0,0.166086 v 13.28688 q 0,0.166086 0,0.166086 0,0 0.166086,0 h 13.28688 q 0.166086,0 0.166086,0 0,0 0,-0.166086 V 42.89379 q 0,-0.166086 0,-0.166086 0,0 -0.166086,0 z m 66.434399,0 v 0 q -0.166086,0 -0.166086,0 0,0 0,0.166086 v 13.28688 q 0,0.166086 0,0.166086 0,0 0.166086,0 h 13.286878 q 0.16609,0 0.16609,0 0,0 0,-0.166086 V 42.89379 q 0,-0.166086 0,-0.166086 0,0 -0.16609,0 z m -66.434399,16.6086 v 0 q -0.166086,0 -0.166086,0 0,0 0,0.166086 v 13.28688 q 0,0.166086 0,0.166086 0,0 0.166086,0 h 13.28688 q 0.166086,0 0.166086,0 0,0 0,-0.166086 V 59.50239 q 0,-0.166086 0,-0.166086 0,0 -0.166086,0 z m 16.6086,0 v 0 q -0.166086,0 -0.166086,0 0,0 0,0.166086 v 13.28688 q 0,0.166086 0,0.166086 0,0 0.166086,0 h 13.28688 q 0.166086,0 0.166086,0 0,0 0,-0.166086 V 59.50239 q 0,-0.166086 0,-0.166086 0,0 -0.166086,0 z m 16.6086,0 v 0 q -0.166086,0 -0.166086,0 0,0 0,0.166086 v 13.28688 q 0,0.166086 0,0.166086 0,0 0.166086,0 h 13.286879 q 0.166086,0 0.166086,0 0,0 0,-0.166086 V 59.50239 q 0,-0.166086 0,-0.166086 0,0 -0.166086,0 z m 16.608599,0 v 0 q -0.166086,0 -0.166086,0 0,0 0,0.166086 v 13.28688 q 0,0.166086 0,0.166086 0,0 0.166086,0 h 13.28688 q 0.166086,0 0.166086,0 0,0 0,-0.166086 V 59.50239 q 0,-0.166086 0,-0.166086 0,0 -0.166086,0 z m -49.825799,16.6086 v 0 q -0.166086,0 -0.166086,0 0,0 0,0.166086 v 13.28688 q 0,0.166086 0,0.166086 0,0 0.166086,0 h 13.28688 q 0.166086,0 0.166086,0 0,0 0,-0.166086 V 76.11099 q 0,-0.166086 0,-0.166086 0,0 -0.166086,0 z m 0,16.6086 v 0 q -0.166086,0 -0.166086,0 0,0 0,0.166086 v 13.28689 q 0,0.16608 0,0.16608 0,0 0.166086,0 h 13.28688 q 0.166086,0 0.166086,0 0,0 0,-0.16608 V 92.71959 q 0,-0.166086 0,-0.166086 0,0 -0.166086,0 z m 0,16.608606 v 0 q -0.166086,0 -0.166086,0 0,0 0,0.16609 v 13.28688 q 0,0.16608 0,0.16608 0,0 0.166086,0 h 13.28688 q 0.166086,0 0.166086,0 0,0 0,-0.16608 V 109.3282 q 0,-0.16609 0,-0.16609 0,0 -0.166086,0 z"
       id="text1"
       style="font-weight:800;font-size:166.086px;line-height:1;font-family:Doto;-inkscape-font-specification:'Doto, Ultra-Bold';fill:#156101;fill-opacity:1;stroke-width:24.9128"
       aria-label="P" />
  </g>
</svg>
